<svg class="railroad-diagram" height="122" viewBox="0 0 214 122" width="214" xmlns="http://www.w3.org/2000/svg" xmlns:xlink="http://www.w3.org/1999/xlink">
<g transform="translate(.5 .5)">
<g data-x="Start w:20 h:10/0/10">
<path cls="class66s" d="M20 51v20m10 -20v20m-10 -10h20" /></g><path class="class1" d="M40 61h10" /><g data-x="MultipleChoice w:114 h:41/0/41">
<path class="class39" d="M50 61h0.0" /><path class="class40" d="M164.0 61h0.0" /><path class="class41" d="M80.0 61v-20a10 10 0 0 1 10 -10" /><g class="terminal " data-x="Terminal w:44 h:11/0/11">
<path class="class67" d="M90.0 31h0.0" /><path class="class68" d="M134.0 31h0.0" /><rect height="22" rx="10" ry="10" width="44" x="90" y="20"></rect><text x="112" y="35">foo</text></g><path class="class42" d="M134.0 31a10 10 0 0 1 10 10v10" /><path class="class43" d="M80.0 61h10" /><g class="terminal " data-x="Terminal w:44 h:11/0/11">
<path class="class67" d="M90.0 61h0.0" /><path class="class68" d="M134.0 61h0.0" /><rect height="22" rx="10" ry="10" width="44" x="90" y="50"></rect><text x="112" y="65">bar</text></g><path class="class44" d="M134.0 61h10" /><path class="class45" d="M80.0 61v20a10 10 0 0 0 10 10" /><g class="terminal " data-x="Terminal w:44 h:11/0/11">
<path class="class67" d="M90.0 91h0.0" /><path class="class68" d="M134.0 91h0.0" /><rect height="22" rx="10" ry="10" width="44" x="90" y="80"></rect><text x="112" y="95">baz</text></g><path class="class46" d="M134.0 91a10 10 0 0 0 10 -10v-10" /><g class="diagram-text">
<title>take one or more branches, once each, in any order</title><path class="diagram-text" d="M 80.0 51 h -26 a 4 4 0 0 0 -4 4 v 12 a 4 4 0 0 0 4 4 h 26 z"></path><text class="diagram-text" x="65" y="65">1+</text><path class="diagram-text" d="M 144.0 51 h 16 a 4 4 0 0 1 4 4 v 12 a 4 4 0 0 1 -4 4 h -16 z"></path><text class="diagram-arrow" x="154" y="65">↺</text></g></g><path class="class2" d="M164 61h10" /><path cls="class74s" d="M 174 61 h 20 m -10 -10 v 20 m 10 -20 v 20" data-x="End w:20 h:10/0/10"></path></g><style>/* <![CDATA[ */
	svg.railroad-diagram {
		background-color:hsl(30,20%,95%);
	}
	svg.railroad-diagram path {
		stroke-width:3;
		stroke:black;
		fill:rgba(0,0,0,0);
	}
	svg.railroad-diagram text {
		font:bold 14px monospace;
		text-anchor:middle;
	}
	svg.railroad-diagram text.label{
		text-anchor:start;
	}
	svg.railroad-diagram text.comment{
		font:italic 12px monospace;
	}
	svg.railroad-diagram rect{
		stroke-width:3;
		stroke:black;
		fill:hsl(120,100%,90%);
	}
	svg.railroad-diagram rect.group-box {
		stroke: gray;
		stroke-dasharray: 10 5;
		fill: none;
	}

/* ]]> */
</style></svg>