<svg class="railroad-diagram" height="62" viewBox="0 0 344 62" width="344" xmlns="http://www.w3.org/2000/svg" xmlns:xlink="http://www.w3.org/1999/xlink">
<g transform="translate(.5 .5)">
<g data-x="Start w:20 h:10/0/10">
<path cls="class66s" d="M20 21v20m10 -20v20m-10 -10h20" /></g><path class="class1" d="M40 31h10" /><g data-x="Sequence w:244 h:11/0/11">
<path class="class3" d="M50 31h0.0" /><path class="class4" d="M294.0 31h0.0" /><g class="terminal " data-x="Terminal w:52 h:11/0/11">
<path class="class67" d="M50.0 31h0.0" /><path class="class68" d="M102.0 31h0.0" /><rect height="22" rx="10" ry="10" width="52" x="50" y="20"></rect><text x="76" y="35">item</text></g><path class="class6" d="M102.0 31h10" /><path class="class5" d="M112.0 31h10" /><g class="non-terminal " data-x="NonTerminal w:92 h:11/0/11">
<path class="class69" d="M122.0 31h0.0" /><path class="class70" d="M214.0 31h0.0" /><rect height="22" width="92" x="122" y="20"></rect><text x="168" y="35">operation</text></g><path class="class6" d="M214.0 31h10" /><path class="class5" d="M224.0 31h10" /><g class="terminal " data-x="Terminal w:60 h:11/0/11">
<path class="class67" d="M234.0 31h0.0" /><path class="class68" d="M294.0 31h0.0" /><rect height="22" rx="10" ry="10" width="60" x="234" y="20"></rect><text x="264" y="35">item2</text></g></g><path class="class2" d="M294 31h10" /><path cls="class74s" d="M 304 31 h 20 m -10 -10 v 20 m 10 -20 v 20" data-x="End w:20 h:10/0/10"></path></g><style>/* <![CDATA[ */
	svg.railroad-diagram {
		background-color:hsl(30,20%,95%);
	}
	svg.railroad-diagram path {
		stroke-width:3;
		stroke:black;
		fill:rgba(0,0,0,0);
	}
	svg.railroad-diagram text {
		font:bold 14px monospace;
		text-anchor:middle;
	}
	svg.railroad-diagram text.label{
		text-anchor:start;
	}
	svg.railroad-diagram text.comment{
		font:italic 12px monospace;
	}
	svg.railroad-diagram rect{
		stroke-width:3;
		stroke:black;
		fill:hsl(120,100%,90%);
	}
	svg.railroad-diagram rect.group-box {
		stroke: gray;
		stroke-dasharray: 10 5;
		fill: none;
	}

/* ]]> */
</style></svg>