<svg class="railroad-diagram" height="142" viewBox="0 0 184 142" width="184" xmlns="http://www.w3.org/2000/svg" xmlns:xlink="http://www.w3.org/1999/xlink">
<g transform="translate(.5 .5)">
<g data-x="Start w:20 h:10/0/10">
<path cls="class66s" d="M20 21v20m10 -20v20m-10 -10h20" /></g><path class="class1" d="M40 31h10" /><g data-x="Stack w:84 h:11/80/11">
<path class="class7" d="M50 31h0.0" /><path class="class8" d="M50.0 31h10" /><g class="terminal " data-x="Terminal w:44 h:11/0/11">
<path class="class67" d="M60.0 31h10.0" /><path class="class68" d="M114.0 31h10.0" /><rect height="22" rx="10" ry="10" width="44" x="70" y="20"></rect><text x="92" y="35">foo</text></g><path class="class9" d="M124.0 31a10 10 0 0 1 10 10v0a10 10 0 0 1 -10 10h-64a10 10 0 0 0 -10 10v0a10 10 0 0 0 10 10" /><g class="terminal " data-x="Terminal w:44 h:11/0/11">
<path class="class67" d="M60.0 71h10.0" /><path class="class68" d="M114.0 71h10.0" /><rect height="22" rx="10" ry="10" width="44" x="70" y="60"></rect><text x="92" y="75">bar</text></g><path class="class9" d="M124.0 71a10 10 0 0 1 10 10v0a10 10 0 0 1 -10 10h-64a10 10 0 0 0 -10 10v0a10 10 0 0 0 10 10" /><g class="terminal " data-x="Terminal w:44 h:11/0/11">
<path class="class67" d="M60.0 111h10.0" /><path class="class68" d="M114.0 111h10.0" /><rect height="22" rx="10" ry="10" width="44" x="70" y="100"></rect><text x="92" y="115">baz</text></g><path class="class10" d="M124.0 111h10" /><path class="class11" d="M134.0 111h0.0" /></g><path class="class2" d="M134 111h10" /><path cls="class74s" d="M 144 111 h 20 m -10 -10 v 20 m 10 -20 v 20" data-x="End w:20 h:10/0/10"></path></g><style>/* <![CDATA[ */
	svg.railroad-diagram {
		background-color:hsl(30,20%,95%);
	}
	svg.railroad-diagram path {
		stroke-width:3;
		stroke:black;
		fill:rgba(0,0,0,0);
	}
	svg.railroad-diagram text {
		font:bold 14px monospace;
		text-anchor:middle;
	}
	svg.railroad-diagram text.label{
		text-anchor:start;
	}
	svg.railroad-diagram text.comment{
		font:italic 12px monospace;
	}
	svg.railroad-diagram rect{
		stroke-width:3;
		stroke:black;
		fill:hsl(120,100%,90%);
	}
	svg.railroad-diagram rect.group-box {
		stroke: gray;
		stroke-dasharray: 10 5;
		fill: none;
	}

/* ]]> */
</style></svg>