<svg class="railroad-diagram" height="115" viewBox="0 0 506 115" width="506" xmlns="http://www.w3.org/2000/svg" xmlns:xlink="http://www.w3.org/1999/xlink">
<g transform="translate(.5 .5)">
<g data-x="Start w:20 h:10/0/10">
<path cls="class66s" d="M20 30v20m10 -20v20m-10 -10h20" /></g><path class="class1" d="M40 40h10" /><g data-x="Sequence w:406 h:20/0/55">
<path class="class3" d="M50 40h0.0" /><path class="class4" d="M456.0 40h0.0" /><g data-x="Choice w:203 h:20/0/35">
<path class="class31" d="M50.0 40h0.0" /><path class="class32" d="M253.0 40h0.0" /><path class="class33" d="M50.0 40a10 10 0 0 0 10 -10v0a10 10 0 0 1 10 -10" /><g data-x="Skip w:0 h:0/0/0">
<path class="class73" d="M70.0 20h163" /></g><path class="class34" d="M233.0 20a10 10 0 0 1 10 10v0a10 10 0 0 0 10 10" /><path class="class35" d="M50.0 40h20" /><g data-x="OneOrMore w:163 h:11/0/35">
<path class="class58" d="M70.0 40h0.0" /><path class="class59" d="M233.0 40h0.0" /><path class="class60" d="M70.0 40h10" /><g class="terminal " data-x="Terminal w:44 h:11/0/11">
<path class="class67" d="M80.0 40h49.5" /><path class="class68" d="M173.5 40h49.5" /><rect height="22" rx="10" ry="10" width="44" x="129.5" y="29"></rect><text x="151.5" y="44">foo</text></g><path class="class61" d="M223.0 40h10" /><path class="class62" d="M80.0 40a10 10 0 0 0 -10 10v7a10 10 0 0 0 10 10" /><g class="non-terminal " data-x="Comment w:143 h:8/0/8">
<path class="class71" d="M80.0 67h0.0" /><path class="class72" d="M223.0 67h0.0" /><text class="comment" x="151.5" y="72">repeat if necessary</text></g><path class="class63" d="M223.0 67a10 10 0 0 0 10 -10v-7a10 10 0 0 0 -10 -10" /></g><path class="class36" d="M233.0 40h20" /></g><g data-x="Choice w:203 h:0/0/55">
<path class="class31" d="M253.0 40h0.0" /><path class="class32" d="M456.0 40h0.0" /><path class="class35" d="M253.0 40h20" /><g data-x="Skip w:0 h:0/0/0">
<path class="class73" d="M273.0 40h163" /></g><path class="class36" d="M436.0 40h20" /><path class="class37" d="M253.0 40a10 10 0 0 1 10 10v0a10 10 0 0 0 10 10" /><g data-x="OneOrMore w:163 h:11/0/35">
<path class="class58" d="M273.0 60h0.0" /><path class="class59" d="M436.0 60h0.0" /><path class="class60" d="M273.0 60h10" /><g class="terminal " data-x="Terminal w:44 h:11/0/11">
<path class="class67" d="M283.0 60h49.5" /><path class="class68" d="M376.5 60h49.5" /><rect height="22" rx="10" ry="10" width="44" x="332.5" y="49"></rect><text x="354.5" y="64">bar</text></g><path class="class61" d="M426.0 60h10" /><path class="class62" d="M283.0 60a10 10 0 0 0 -10 10v7a10 10 0 0 0 10 10" /><g class="non-terminal " data-x="Comment w:143 h:8/0/8">
<path class="class71" d="M283.0 87h0.0" /><path class="class72" d="M426.0 87h0.0" /><text class="comment" x="354.5" y="92">repeat if necessary</text></g><path class="class63" d="M426.0 87a10 10 0 0 0 10 -10v-7a10 10 0 0 0 -10 -10" /></g><path class="class38" d="M436.0 60a10 10 0 0 0 10 -10v0a10 10 0 0 1 10 -10" /></g></g><path class="class2" d="M456 40h10" /><path cls="class74s" d="M 466 40 h 20 m -10 -10 v 20 m 10 -20 v 20" data-x="End w:20 h:10/0/10"></path></g><style>/* <![CDATA[ */
	svg.railroad-diagram {
		background-color:hsl(30,20%,95%);
	}
	svg.railroad-diagram path {
		stroke-width:3;
		stroke:black;
		fill:rgba(0,0,0,0);
	}
	svg.railroad-diagram text {
		font:bold 14px monospace;
		text-anchor:middle;
	}
	svg.railroad-diagram text.label{
		text-anchor:start;
	}
	svg.railroad-diagram text.comment{
		font:italic 12px monospace;
	}
	svg.railroad-diagram rect{
		stroke-width:3;
		stroke:black;
		fill:hsl(120,100%,90%);
	}
	svg.railroad-diagram rect.group-box {
		stroke: gray;
		stroke-dasharray: 10 5;
		fill: none;
	}

/* ]]> */
</style></svg>