<svg class="railroad-diagram" height="112.0" viewBox="0 0 192 112.0" width="192" xmlns="http://www.w3.org/2000/svg" xmlns:xlink="http://www.w3.org/1999/xlink">
<g transform="translate(.5 .5)">
<g data-x="Start w:20 h:10/0/10">
<path cls="class66s" d="M20 46.0v20m10 -20v20m-10 -10h20" /></g><g data-x="AlternatingSequence w:112 h:36.0/0/36.0">
<path class="class23" d="M40 56.0h0" /><path class="class24" d="M152.0 56.0h0" /><path class="class25" d="M40.0 56.0a10 10 0 0 0 10 -10v-5.0a10 10 0 0 1 10 -10" /><g class="terminal " data-x="Terminal w:52 h:11/0/11">
<path class="class67" d="M60.0 31.0h10.0" /><path class="class68" d="M122.0 31.0h10.0" /><rect height="22" rx="10" ry="10" width="52" x="70" y="20"></rect><text x="96" y="35">alt1</text></g><path class="class26" d="M132.0 31.0a10 10 0 0 1 10 10v5.0a10 10 0 0 0 10 10" /><path class="class27" d="M40.0 56.0a10 10 0 0 1 10 10v5.0a10 10 0 0 0 10 10" /><g class="terminal " data-x="Terminal w:52 h:11/0/11">
<path class="class67" d="M60.0 81.0h10.0" /><path class="class68" d="M122.0 81.0h10.0" /><rect height="22" rx="10" ry="10" width="52" x="70" y="70"></rect><text x="96" y="85">alt2</text></g><path class="class28" d="M132.0 81.0a10 10 0 0 0 10 -10v-5.0a10 10 0 0 1 10 -10" /><path class="class29" d="M50.0 41.0a10 10 0 0 0 10 10h26.85786437626905a 10 10 0 0 1 7.071067811865475 2.9289321881345254l4.142135623730949 4.142135623730949a 10 10 0 0 0 7.071067811865475 2.9289321881345254h26.85786437626905a10 10 0 0 1 10 10" /><path class="class30" d="M50.0 71.0a10 10 0 0 1 10 -10h26.85786437626905a 10 10 0 0 0 7.071067811865475 -2.9289321881345254l4.142135623730949 -4.142135623730949a 10 10 0 0 1 7.071067811865475 -2.9289321881345254h26.85786437626905a10 10 0 0 0 10 -10" /></g><path cls="class74s" d="M 152 56.0 h 20 m -10 -10 v 20 m 10 -20 v 20" data-x="End w:20 h:10/0/10"></path></g><style>/* <![CDATA[ */
	svg.railroad-diagram {
		background-color:hsl(30,20%,95%);
	}
	svg.railroad-diagram path {
		stroke-width:3;
		stroke:black;
		fill:rgba(0,0,0,0);
	}
	svg.railroad-diagram text {
		font:bold 14px monospace;
		text-anchor:middle;
	}
	svg.railroad-diagram text.label{
		text-anchor:start;
	}
	svg.railroad-diagram text.comment{
		font:italic 12px monospace;
	}
	svg.railroad-diagram rect{
		stroke-width:3;
		stroke:black;
		fill:hsl(120,100%,90%);
	}
	svg.railroad-diagram rect.group-box {
		stroke: gray;
		stroke-dasharray: 10 5;
		fill: none;
	}

/* ]]> */
</style></svg>