<svg class="railroad-diagram" height="122" viewBox="0 0 164 122" width="164" xmlns="http://www.w3.org/2000/svg" xmlns:xlink="http://www.w3.org/1999/xlink">
<g transform="translate(.5 .5)">
<g data-x="Start w:20 h:10/0/10">
<path cls="class66s" d="M20 21v20m10 -20v20m-10 -10h20" /></g><g data-x="Choice w:84 h:11/0/71">
<path class="class31" d="M40 31h0.0" /><path class="class32" d="M124.0 31h0.0" /><path class="class35" d="M40.0 31h20" /><g class="terminal " data-x="Terminal w:44 h:11/0/11">
<path class="class67" d="M60.0 31h0.0" /><path class="class68" d="M104.0 31h0.0" /><rect height="22" rx="10" ry="10" width="44" x="60" y="20"></rect><text x="82" y="35">foo</text></g><path class="class36" d="M104.0 31h20" /><path class="class37" d="M40.0 31a10 10 0 0 1 10 10v10a10 10 0 0 0 10 10" /><g class="terminal " data-x="Terminal w:44 h:11/0/11">
<path class="class67" d="M60.0 61h0.0" /><path class="class68" d="M104.0 61h0.0" /><rect height="22" rx="10" ry="10" width="44" x="60" y="50"></rect><text x="82" y="65">bar</text></g><path class="class38" d="M104.0 61a10 10 0 0 0 10 -10v-10a10 10 0 0 1 10 -10" /><path class="class37" d="M40.0 31a10 10 0 0 1 10 10v40a10 10 0 0 0 10 10" /><g class="terminal " data-x="Terminal w:44 h:11/0/11">
<path class="class67" d="M60.0 91h0.0" /><path class="class68" d="M104.0 91h0.0" /><rect height="22" rx="10" ry="10" width="44" x="60" y="80"></rect><text x="82" y="95">baz</text></g><path class="class38" d="M104.0 91a10 10 0 0 0 10 -10v-40a10 10 0 0 1 10 -10" /></g><path cls="class74s" d="M 124 31 h 20 m -10 -10 v 20 m 10 -20 v 20" data-x="End w:20 h:10/0/10"></path></g><style>/* <![CDATA[ */
	svg.railroad-diagram {
		background-color:hsl(30,20%,95%);
	}
	svg.railroad-diagram path {
		stroke-width:3;
		stroke:black;
		fill:rgba(0,0,0,0);
	}
	svg.railroad-diagram text {
		font:bold 14px monospace;
		text-anchor:middle;
	}
	svg.railroad-diagram text.label{
		text-anchor:start;
	}
	svg.railroad-diagram text.comment{
		font:italic 12px monospace;
	}
	svg.railroad-diagram rect{
		stroke-width:3;
		stroke:black;
		fill:hsl(120,100%,90%);
	}
	svg.railroad-diagram rect.group-box {
		stroke: gray;
		stroke-dasharray: 10 5;
		fill: none;
	}

/* ]]> */
</style></svg>