<svg class="railroad-diagram" height="124" viewBox="0 0 320 124" width="320" xmlns="http://www.w3.org/2000/svg" xmlns:xlink="http://www.w3.org/1999/xlink">
<g transform="translate(.5 .5)">
<g data-x="Start w:20 h:10/0/10">
<path cls="class66s" d="M20 45v20m10 -20v20m-10 -10h20" /></g><path class="class1" d="M40 55h10" /><g data-x="Sequence w:220 h:35/0/49">
<path class="class3" d="M50 55h0.0" /><path class="class4" d="M270.0 55h0.0" /><g class="terminal " data-x="Terminal w:44 h:11/0/11">
<path class="class67" d="M50.0 55h0.0" /><path class="class68" d="M94.0 55h0.0" /><rect height="22" rx="10" ry="10" width="44" x="50" y="44"></rect><text x="72" y="59">foo</text></g><path class="class6" d="M94.0 55h10" /><path class="class5" d="M104.0 55h10" /><g data-x="Group w:92 h:35/0/49">
<path class="class64" d="M114.0 55h0.0" /><path class="class65" d="M206.0 55h0.0" /><rect class="group-box" height="68" rx="10" ry="10" width="92" x="114" y="36"></rect><g data-x="Choice w:92 h:11/0/41">
<path class="class31" d="M114.0 55h0.0" /><path class="class32" d="M206.0 55h0.0" /><path class="class35" d="M114.0 55h20" /><g class="non-terminal " data-x="NonTerminal w:52 h:11/0/11">
<path class="class69" d="M134.0 55h0.0" /><path class="class70" d="M186.0 55h0.0" /><rect height="22" width="52" x="134" y="44"></rect><text x="160" y="59">cmd1</text></g><path class="class36" d="M186.0 55h20" /><path class="class37" d="M114.0 55a10 10 0 0 1 10 10v10a10 10 0 0 0 10 10" /><g class="non-terminal " data-x="NonTerminal w:52 h:11/0/11">
<path class="class69" d="M134.0 85h0.0" /><path class="class70" d="M186.0 85h0.0" /><rect height="22" width="52" x="134" y="74"></rect><text x="160" y="89">cmd2</text></g><path class="class38" d="M186.0 85a10 10 0 0 0 10 -10v-10a10 10 0 0 1 10 -10" /></g><g class="non-terminal " data-x="Comment w:45 h:8/0/8">
<path class="class71" d="M114.0 28h0.0" /><path class="class72" d="M159.0 28h0.0" /><text class="comment" x="136.5" y="33">label</text></g></g><path class="class6" d="M206.0 55h10" /><path class="class5" d="M216.0 55h10" /><g class="terminal " data-x="Terminal w:44 h:11/0/11">
<path class="class67" d="M226.0 55h0.0" /><path class="class68" d="M270.0 55h0.0" /><rect height="22" rx="10" ry="10" width="44" x="226" y="44"></rect><text x="248" y="59">bar</text></g></g><path class="class2" d="M270 55h10" /><path cls="class74s" d="M 280 55 h 20 m -10 -10 v 20 m 10 -20 v 20" data-x="End w:20 h:10/0/10"></path></g><style>/* <![CDATA[ */
	svg.railroad-diagram {
		background-color:hsl(30,20%,95%);
	}
	svg.railroad-diagram path {
		stroke-width:3;
		stroke:black;
		fill:rgba(0,0,0,0);
	}
	svg.railroad-diagram text {
		font:bold 14px monospace;
		text-anchor:middle;
	}
	svg.railroad-diagram text.label{
		text-anchor:start;
	}
	svg.railroad-diagram text.comment{
		font:italic 12px monospace;
	}
	svg.railroad-diagram rect{
		stroke-width:3;
		stroke:black;
		fill:hsl(120,100%,90%);
	}
	svg.railroad-diagram rect.group-box {
		stroke: gray;
		stroke-dasharray: 10 5;
		fill: none;
	}

/* ]]> */
</style></svg>