<svg class="railroad-diagram" height="198" viewBox="0 0 256 198" width="256" xmlns="http://www.w3.org/2000/svg" xmlns:xlink="http://www.w3.org/1999/xlink">
<g transform="translate(.5 .5)">
<g data-x="Start w:20 h:10/0/10">
<path cls="class66s" d="M20 89v20m10 -20v20m-10 -10h20" /></g><g data-x="HorizontalChoice w:176 h:79/0/79">
<path class="class47" d="M40 99h0.0" /><path class="class48" d="M216.0 99h0.0" /><path class="class49" d="M40.0 99a10 10 0 0 0 10 -10v-59a10 10 0 0 1 10 -10h58" /><path class="class50" d="M138.0 178h58a10 10 0 0 0 10 -10v-59a10 10 0 0 1 10 -10" /><path class="class51" d="M40.0 99h10" /><g data-x="Choice w:68 h:71/0/71">
<path class="class31" d="M50.0 99h0.0" /><path class="class32" d="M118.0 99h0.0" /><path class="class33" d="M50.0 99a10 10 0 0 0 10 -10v-10a10 10 0 0 1 10 -10" /><g class="terminal " data-x="Terminal w:28 h:11/0/11">
<path class="class67" d="M70.0 69h0.0" /><path class="class68" d="M98.0 69h0.0" /><rect height="22" rx="10" ry="10" width="28" x="70" y="58"></rect><text x="84" y="73">1</text></g><path class="class34" d="M98.0 69a10 10 0 0 1 10 10v10a10 10 0 0 0 10 10" /><path class="class33" d="M50.0 99a10 10 0 0 0 10 -10v-40a10 10 0 0 1 10 -10" /><g class="terminal " data-x="Terminal w:28 h:11/0/11">
<path class="class67" d="M70.0 39h0.0" /><path class="class68" d="M98.0 39h0.0" /><rect height="22" rx="10" ry="10" width="28" x="70" y="28"></rect><text x="84" y="43">0</text></g><path class="class34" d="M98.0 39a10 10 0 0 1 10 10v40a10 10 0 0 0 10 10" /><path class="class35" d="M50.0 99h20" /><g class="terminal " data-x="Terminal w:28 h:11/0/11">
<path class="class67" d="M70.0 99h0.0" /><path class="class68" d="M98.0 99h0.0" /><rect height="22" rx="10" ry="10" width="28" x="70" y="88"></rect><text x="84" y="103">2</text></g><path class="class36" d="M98.0 99h20" /><path class="class37" d="M50.0 99a10 10 0 0 1 10 10v10a10 10 0 0 0 10 10" /><g class="terminal " data-x="Terminal w:28 h:11/0/11">
<path class="class67" d="M70.0 129h0.0" /><path class="class68" d="M98.0 129h0.0" /><rect height="22" rx="10" ry="10" width="28" x="70" y="118"></rect><text x="84" y="133">3</text></g><path class="class38" d="M98.0 129a10 10 0 0 0 10 -10v-10a10 10 0 0 1 10 -10" /><path class="class37" d="M50.0 99a10 10 0 0 1 10 10v40a10 10 0 0 0 10 10" /><g class="terminal " data-x="Terminal w:28 h:11/0/11">
<path class="class67" d="M70.0 159h0.0" /><path class="class68" d="M98.0 159h0.0" /><rect height="22" rx="10" ry="10" width="28" x="70" y="148"></rect><text x="84" y="163">4</text></g><path class="class38" d="M98.0 159a10 10 0 0 0 10 -10v-40a10 10 0 0 1 10 -10" /></g><path class="class57" d="M118.0 99a10 10 0 0 1 10 10v59a10 10 0 0 0 10 10" /><path class="class52" d="M118.0 20a10 10 0 0 1 10 10v59a10 10 0 0 0 10 10" /><g data-x="Choice w:68 h:71/0/71">
<path class="class31" d="M138.0 99h0.0" /><path class="class32" d="M206.0 99h0.0" /><path class="class33" d="M138.0 99a10 10 0 0 0 10 -10v-10a10 10 0 0 1 10 -10" /><g class="terminal " data-x="Terminal w:28 h:11/0/11">
<path class="class67" d="M158.0 69h0.0" /><path class="class68" d="M186.0 69h0.0" /><rect height="22" rx="10" ry="10" width="28" x="158" y="58"></rect><text x="172" y="73">6</text></g><path class="class34" d="M186.0 69a10 10 0 0 1 10 10v10a10 10 0 0 0 10 10" /><path class="class33" d="M138.0 99a10 10 0 0 0 10 -10v-40a10 10 0 0 1 10 -10" /><g class="terminal " data-x="Terminal w:28 h:11/0/11">
<path class="class67" d="M158.0 39h0.0" /><path class="class68" d="M186.0 39h0.0" /><rect height="22" rx="10" ry="10" width="28" x="158" y="28"></rect><text x="172" y="43">5</text></g><path class="class34" d="M186.0 39a10 10 0 0 1 10 10v40a10 10 0 0 0 10 10" /><path class="class35" d="M138.0 99h20" /><g class="terminal " data-x="Terminal w:28 h:11/0/11">
<path class="class67" d="M158.0 99h0.0" /><path class="class68" d="M186.0 99h0.0" /><rect height="22" rx="10" ry="10" width="28" x="158" y="88"></rect><text x="172" y="103">7</text></g><path class="class36" d="M186.0 99h20" /><path class="class37" d="M138.0 99a10 10 0 0 1 10 10v10a10 10 0 0 0 10 10" /><g class="terminal " data-x="Terminal w:28 h:11/0/11">
<path class="class67" d="M158.0 129h0.0" /><path class="class68" d="M186.0 129h0.0" /><rect height="22" rx="10" ry="10" width="28" x="158" y="118"></rect><text x="172" y="133">8</text></g><path class="class38" d="M186.0 129a10 10 0 0 0 10 -10v-10a10 10 0 0 1 10 -10" /><path class="class37" d="M138.0 99a10 10 0 0 1 10 10v40a10 10 0 0 0 10 10" /><g class="terminal " data-x="Terminal w:28 h:11/0/11">
<path class="class67" d="M158.0 159h0.0" /><path class="class68" d="M186.0 159h0.0" /><rect height="22" rx="10" ry="10" width="28" x="158" y="148"></rect><text x="172" y="163">9</text></g><path class="class38" d="M186.0 159a10 10 0 0 0 10 -10v-40a10 10 0 0 1 10 -10" /></g><path class="class53" d="M206.0 99h10" /></g><path cls="class74s" d="M 216 99 h 20 m -10 -10 v 20 m 10 -20 v 20" data-x="End w:20 h:10/0/10"></path></g><style>/* <![CDATA[ */
	svg.railroad-diagram {
		background-color:hsl(30,20%,95%);
	}
	svg.railroad-diagram path {
		stroke-width:3;
		stroke:black;
		fill:rgba(0,0,0,0);
	}
	svg.railroad-diagram text {
		font:bold 14px monospace;
		text-anchor:middle;
	}
	svg.railroad-diagram text.label{
		text-anchor:start;
	}
	svg.railroad-diagram text.comment{
		font:italic 12px monospace;
	}
	svg.railroad-diagram rect{
		stroke-width:3;
		stroke:black;
		fill:hsl(120,100%,90%);
	}
	svg.railroad-diagram rect.group-box {
		stroke: gray;
		stroke-dasharray: 10 5;
		fill: none;
	}

/* ]]> */
</style></svg>