<svg class="railroad-diagram" height="91" viewBox="0 0 268 91" width="268" xmlns="http://www.w3.org/2000/svg" xmlns:xlink="http://www.w3.org/1999/xlink">
<g transform="translate(.5 .5)">
<g data-x="Start w:20 h:10/0/10">
<path cls="class66s" d="M20 30v20m10 -20v20m-10 -10h20" /></g><path class="class1" d="M40 40h10" /><g data-x="Sequence w:168 h:20/0/31">
<path class="class3" d="M50 40h0.0" /><path class="class4" d="M218.0 40h0.0" /><g data-x="Choice w:84 h:20/0/11">
<path class="class31" d="M50.0 40h0.0" /><path class="class32" d="M134.0 40h0.0" /><path class="class33" d="M50.0 40a10 10 0 0 0 10 -10v0a10 10 0 0 1 10 -10" /><g data-x="Skip w:0 h:0/0/0">
<path class="class73" d="M70.0 20h44" /></g><path class="class34" d="M114.0 20a10 10 0 0 1 10 10v0a10 10 0 0 0 10 10" /><path class="class35" d="M50.0 40h20" /><g class="terminal " data-x="Terminal w:44 h:11/0/11">
<path class="class67" d="M70.0 40h0.0" /><path class="class68" d="M114.0 40h0.0" /><rect height="22" rx="10" ry="10" width="44" x="70" y="29"></rect><text x="92" y="44">foo</text></g><path class="class36" d="M114.0 40h20" /></g><g data-x="Choice w:84 h:0/0/31">
<path class="class31" d="M134.0 40h0.0" /><path class="class32" d="M218.0 40h0.0" /><path class="class35" d="M134.0 40h20" /><g data-x="Skip w:0 h:0/0/0">
<path class="class73" d="M154.0 40h44" /></g><path class="class36" d="M198.0 40h20" /><path class="class37" d="M134.0 40a10 10 0 0 1 10 10v0a10 10 0 0 0 10 10" /><g class="terminal " data-x="Terminal w:44 h:11/0/11">
<path class="class67" d="M154.0 60h0.0" /><path class="class68" d="M198.0 60h0.0" /><rect height="22" rx="10" ry="10" width="44" x="154" y="49"></rect><text x="176" y="64">bar</text></g><path class="class38" d="M198.0 60a10 10 0 0 0 10 -10v0a10 10 0 0 1 10 -10" /></g></g><path class="class2" d="M218 40h10" /><path cls="class74s" d="M 228 40 h 20 m -10 -10 v 20 m 10 -20 v 20" data-x="End w:20 h:10/0/10"></path></g><style>/* <![CDATA[ */
	svg.railroad-diagram {
		background-color:hsl(30,20%,95%);
	}
	svg.railroad-diagram path {
		stroke-width:3;
		stroke:black;
		fill:rgba(0,0,0,0);
	}
	svg.railroad-diagram text {
		font:bold 14px monospace;
		text-anchor:middle;
	}
	svg.railroad-diagram text.label{
		text-anchor:start;
	}
	svg.railroad-diagram text.comment{
		font:italic 12px monospace;
	}
	svg.railroad-diagram rect{
		stroke-width:3;
		stroke:black;
		fill:hsl(120,100%,90%);
	}
	svg.railroad-diagram rect.group-box {
		stroke: gray;
		stroke-dasharray: 10 5;
		fill: none;
	}

/* ]]> */
</style></svg>