<svg class="railroad-diagram" height="80" viewBox="0 0 312 80" width="312" xmlns="http://www.w3.org/2000/svg" xmlns:xlink="http://www.w3.org/1999/xlink">
<g transform="translate(.5 .5)">
<g data-x="Start w:20 h:10/0/10">
<path cls="class66s" d="M20 30v20m10 -20v20m-10 -10h20" /></g><g data-x="OptionalSequence w:232 h:20/0/20">
<path class="class12" d="M40 40h0" /><path class="class13" d="M272.0 40h0" /><path class="class14" d="M40.0 40a10 10 0 0 0 10 -10v0a10 10 0 0 1 10 -10h44a10 10 0 0 1 10 10v0a10 10 0 0 0 10 10" /><path class="class15" d="M40.0 40h20" /><g class="terminal " data-x="Terminal w:44 h:11/0/11">
<path class="class67" d="M60.0 40h0.0" /><path class="class68" d="M104.0 40h0.0" /><rect height="22" rx="10" ry="10" width="44" x="60" y="29"></rect><text x="82" y="44">foo</text></g><path class="class16" d="M104.0 20h84a10 10 0 0 1 10 10v0a10 10 0 0 0 10 10" /><path class="class17" d="M104.0 40h20" /><g class="terminal " data-x="Terminal w:44 h:11/0/11">
<path class="class67" d="M124.0 40h0.0" /><path class="class68" d="M168.0 40h0.0" /><rect height="22" rx="10" ry="10" width="44" x="124" y="29"></rect><text x="146" y="44">bar</text></g><path class="class18" d="M168.0 40h20" /><path class="class19" d="M104.0 40a10 10 0 0 1 10 10v0a10 10 0 0 0 10 10h44a10 10 0 0 0 10 -10v0a10 10 0 0 1 10 -10" /><path class="class20" d="M188.0 40h20" /><g class="terminal " data-x="Terminal w:44 h:11/0/11">
<path class="class67" d="M208.0 40h0.0" /><path class="class68" d="M252.0 40h0.0" /><rect height="22" rx="10" ry="10" width="44" x="208" y="29"></rect><text x="230" y="44">baz</text></g><path class="class21" d="M252.0 40h20" /><path class="class22" d="M188.0 40a10 10 0 0 1 10 10v0a10 10 0 0 0 10 10h44a10 10 0 0 0 10 -10v0a10 10 0 0 1 10 -10" /></g><path cls="class74s" d="M 272 40 h 20 m -10 -10 v 20 m 10 -20 v 20" data-x="End w:20 h:10/0/10"></path></g><style>/* <![CDATA[ */
	svg.railroad-diagram {
		background-color:hsl(30,20%,95%);
	}
	svg.railroad-diagram path {
		stroke-width:3;
		stroke:black;
		fill:rgba(0,0,0,0);
	}
	svg.railroad-diagram text {
		font:bold 14px monospace;
		text-anchor:middle;
	}
	svg.railroad-diagram text.label{
		text-anchor:start;
	}
	svg.railroad-diagram text.comment{
		font:italic 12px monospace;
	}
	svg.railroad-diagram rect{
		stroke-width:3;
		stroke:black;
		fill:hsl(120,100%,90%);
	}
	svg.railroad-diagram rect.group-box {
		stroke: gray;
		stroke-dasharray: 10 5;
		fill: none;
	}

/* ]]> */
</style></svg>