<svg class="railroad-diagram" height="142" viewBox="0 0 360 142" width="360" xmlns="http://www.w3.org/2000/svg" xmlns:xlink="http://www.w3.org/1999/xlink">
<g transform="translate(.5 .5)">
<g data-x="Start w:20 h:10/0/10">
<path cls="class66s" d="M20 21v20m10 -20v20m-10 -10h20" /></g><path class="class1" d="M40 31h10" /><g data-x="Stack w:260 h:11/80/11">
<path class="class7" d="M50 31h0.0" /><path class="class8" d="M50.0 31h10" /><g data-x="Sequence w:220 h:11/0/11">
<path class="class3" d="M60.0 31h10.0" /><path class="class4" d="M290.0 31h10.0" /><g class="non-terminal " data-x="NonTerminal w:116 h:11/0/11">
<path class="class69" d="M70.0 31h0.0" /><path class="class70" d="M186.0 31h0.0" /><rect height="22" width="116" x="70" y="20"></rect><text x="128" y="35">non-terminal</text></g><path class="class6" d="M186.0 31h10" /><path class="class5" d="M196.0 31h10" /><g class="terminal " data-x="Terminal w:84 h:11/0/11">
<path class="class67" d="M206.0 31h0.0" /><path class="class68" d="M290.0 31h0.0" /><rect height="22" rx="10" ry="10" width="84" x="206" y="20"></rect><text x="248" y="35">terminal</text></g></g><path class="class9" d="M300.0 31a10 10 0 0 1 10 10v0a10 10 0 0 1 -10 10h-240a10 10 0 0 0 -10 10v0a10 10 0 0 0 10 10" /><g data-x="Skip w:0 h:0/0/0">
<path class="class73" d="M60.0 71h240" /></g><path class="class9" d="M300.0 71a10 10 0 0 1 10 10v0a10 10 0 0 1 -10 10h-240a10 10 0 0 0 -10 10v0a10 10 0 0 0 10 10" /><g data-x="Sequence w:220 h:11/0/11">
<path class="class3" d="M60.0 111h10.0" /><path class="class4" d="M290.0 111h10.0" /><g class="non-terminal " data-x="NonTerminal w:116 h:11/0/11">
<path class="class69" d="M70.0 111h0.0" /><path class="class70" d="M186.0 111h0.0" /><rect height="22" width="116" x="70" y="100"></rect><text x="128" y="115">non-terminal</text></g><path class="class6" d="M186.0 111h10" /><path class="class5" d="M196.0 111h10" /><g class="terminal " data-x="Terminal w:84 h:11/0/11">
<path class="class67" d="M206.0 111h0.0" /><path class="class68" d="M290.0 111h0.0" /><rect height="22" rx="10" ry="10" width="84" x="206" y="100"></rect><text x="248" y="115">terminal</text></g></g><path class="class10" d="M300.0 111h10" /><path class="class11" d="M310.0 111h0.0" /></g><path class="class2" d="M310 111h10" /><path cls="class74s" d="M 320 111 h 20 m -10 -10 v 20 m 10 -20 v 20" data-x="End w:20 h:10/0/10"></path></g><style>/* <![CDATA[ */
	svg.railroad-diagram {
		background-color:hsl(30,20%,95%);
	}
	svg.railroad-diagram path {
		stroke-width:3;
		stroke:black;
		fill:rgba(0,0,0,0);
	}
	svg.railroad-diagram text {
		font:bold 14px monospace;
		text-anchor:middle;
	}
	svg.railroad-diagram text.label{
		text-anchor:start;
	}
	svg.railroad-diagram text.comment{
		font:italic 12px monospace;
	}
	svg.railroad-diagram rect{
		stroke-width:3;
		stroke:black;
		fill:hsl(120,100%,90%);
	}
	svg.railroad-diagram rect.group-box {
		stroke: gray;
		stroke-dasharray: 10 5;
		fill: none;
	}

/* ]]> */
</style></svg>