<?xml version="1.0" encoding="UTF-8" standalone="no"?>
<svg
   viewBox="0 0 73.721174 27.87698"
   version="1.1"
   id="svg243"
   sodipodi:docname="logo.svg"
   width="73.721176"
   height="27.87698"
   inkscape:version="1.2.2 (b0a8486, 2022-12-01)"
   xml:space="preserve"
   xmlns:inkscape="http://www.inkscape.org/namespaces/inkscape"
   xmlns:sodipodi="http://sodipodi.sourceforge.net/DTD/sodipodi-0.dtd"
   xmlns="http://www.w3.org/2000/svg"
   xmlns:svg="http://www.w3.org/2000/svg"
   xmlns:rdf="http://www.w3.org/1999/02/22-rdf-syntax-ns#"
   xmlns:cc="http://creativecommons.org/ns#"
   xmlns:dc="http://purl.org/dc/elements/1.1/"><sodipodi:namedview
     id="namedview245"
     pagecolor="#ffffff"
     bordercolor="#000000"
     borderopacity="0.25"
     inkscape:showpageshadow="2"
     inkscape:pageopacity="0.0"
     inkscape:pagecheckerboard="true"
     inkscape:deskcolor="#d1d1d1"
     showgrid="false"
     inkscape:zoom="12.988944"
     inkscape:cx="40.572967"
     inkscape:cy="32.373686"
     inkscape:window-width="2560"
     inkscape:window-height="1403"
     inkscape:window-x="0"
     inkscape:window-y="0"
     inkscape:window-maximized="1"
     inkscape:current-layer="svg243" /><defs
     id="defs233"><style
       id="style231">.cls-1{fill:#fff;}.cls-2{fill:#f8e14b;}</style><clipPath
       clipPathUnits="userSpaceOnUse"
       id="clipPath598"><path
         id="path600"
         style="fill:#ff0000;fill-opacity:1;fill-rule:nonzero;stroke:none;stroke-width:9.67754"
         d="m 0,0 v 283.46491 h 302.23404 c -0.0552,-2.31695 -0.0435,-4.70128 0.0571,-7.16365 0.25384,-6.24996 0.35265,-12.49409 0.26458,-18.75023 v -64.2838 -48.69011 c 0,-17.11286 3.70739,-30.55281 9.50743,-40.37348 -2.08494,-6.789614 -4.34558,-13.524996 -6.40795,-20.319046 -4.67089,-15.111377 -6.10988,-19.942992 -10.77382,-34.514031 -1.28992,-4.029907 -2.63575,-8.049982 -3.9315,-12.07802 -0.58419,-1.816033 -1.51487,-3.565906 -1.72003,-5.462517 -0.27848,-2.574797 9.98592,17.924968 5.3302,5.651531 C 289.39988,23.878004 286.35938,11.254122 285.05263,0 Z m 521.01821,0 c 0.288,2.0422557 0.57775,4.0826908 0.86943,6.1240668 C 522.27519,4.0743847 522.73064,2.0413977 523.15408,0 Z m 101.27392,0 c 0.16326,1.7076587 0.32855,3.4150972 0.49143,5.1222904 C 625.8655,3.9629665 628.90839,2.2030492 631.87516,0 Z m 126.16712,178.20278 c -1.31897,1.88061 -2.68086,3.73292 -4.08271,5.55703 0.15997,-0.16577 -0.23265,0.3934 -0.35913,0.58598 -0.47478,0.72252 -0.95701,1.43534 -1.43651,2.15477 -4.9749,7.46422 -10.26048,13.4518 -15.65039,18.22098 -0.0978,2.17518 -0.12117,2.2153 -0.30243,6.23748 -2.82328,62.65265 -52.41392,73.47926 -72.48703,37.31143 -10.22301,6.4758 -22.73466,6.68513 -33.87138,0.11343 -22.63862,15.58524 -56.58172,-0.004 -60.86264,-50.73146 -0.54543,-6.46373 -1.25743,-12.91148 -1.81454,-19.37398 -4.35455,2.81991 -8.93862,4.54716 -13.53343,5.2924 1.03552,9.50086 2.47143,18.95516 3.42116,28.46557 2.17509,23.30603 4.35149,46.6116 6.5399,69.91642 0.0484,0.5193 0.0532,0.99897 0.0948,1.51213 h 194.34461 z m -277.30304,88.98799 c -0.17207,4.38317 -0.64637,8.79138 0.32129,13.04199 0.252,1.10708 0.41265,2.15076 0.62372,3.23215 h 0.567 c -0.50845,-5.42447 -1.00534,-10.84984 -1.51212,-16.27414 z" /></clipPath></defs><title
     id="title235">BLEU-fond-transparent-2</title><g
     id="Calque_2"
     data-name="Calque 2"
     transform="matrix(0.18275632,0,0,0.16522299,3.293295e-4,0)"><g
       id="Calque_1-2"
       data-name="Calque 1"><path
         class="cls-1"
         d="m 198.36,64.32 a 5.19,5.19 0 0 1 -0.53,-4 41,41 0 0 1 5.62,-12.32 5.28,5.28 0 0 1 7.31,-1.42 5.28,5.28 0 0 1 1.42,7.32 31.09,31.09 0 0 0 -2.18,3.84 30.2,30.2 0 0 0 -2,5.26 5.26,5.26 0 0 1 -6.45,3.73 5.22,5.22 0 0 1 -3.19,-2.41 z m -30.94,44.05 c 1.69,21.74 -13.42,50.21 -38.62,57.94 A 44,44 0 0 1 115.68,168.58 26.29,26.29 0 0 1 102,165 c -9.81,-5.91 -12.34,-16.63 -13.29,-20.66 -4.77,-20.24 7.94,-38.52 13.63,-45.44 4.11,-5 19,-21.13 38.71,-18.9 3.47,0.4 12.7,1.45 19.51,9.76 5.35,6.55 6.44,13.76 6.86,18.61 z m -10.67,0.83 c -0.29,-3.7 -1.06,-8.49 -4.51,-12.7 -4.06,-5 -9.73,-5.6 -12.45,-5.91 a 23.5,23.5 0 0 0 -2.52,-0.14 c -13.18,0 -23.78,11.64 -26.71,15.2 -4.68,5.69 -15.16,20.61 -11.49,36.2 0.73,3.1 2.45,10.36 8.4,14 6.44,3.88 14.38,1.45 18.19,0.29 v 0.15 -0.16 c 20,-6.13 32.44,-29.68 31.09,-46.93 z m 246.47,26.87 c -0.8,2.87 -8.35,28.11 -28.46,32.05 a 30,30 0 0 1 -5.83,0.6 20.65,20.65 0 0 1 -11.73,-3.4 c -6.52,-4.39 -10.11,-12.51 -9.66,-21.81 l -2,2.42 a 80.29,80.29 0 0 1 -6.27,6.69 c -2.16,2 -4.35,3.94 -6.51,5.63 a 46.86,46.86 0 0 1 -15.87,8.21 24.58,24.58 0 0 1 -14.92,0.23 19,19 0 0 1 -7.8,-5 21.82,21.82 0 0 1 -4.75,-8.28 26.43,26.43 0 0 1 -1.22,-6.81 83.12,83.12 0 0 1 -12.87,11.51 c -6.31,4.53 -12.43,6.83 -18.19,6.83 -4.54,0 -8.09,-0.82 -10.56,-2.43 a 19.48,19.48 0 0 1 -5.63,-5.14 c -2.55,-3.59 -4,-8.48 -4.42,-14.52 -1.61,1.85 -3.14,3.53 -4.66,5.11 a 102.19,102.19 0 0 1 -15.61,13.39 c -7,4.41 -13.66,6.64 -19.75,6.64 -4.6,0 -8.29,-0.76 -11,-2.25 a 20.22,20.22 0 0 1 -6.1,-4.73 c -5.51,-6.42 -6.79,-17.22 -3.8,-32.09 2,-11.55 6.85,-26.47 14.31,-44.36 a 5.2,5.2 0 0 1 3,-3 6.66,6.66 0 0 1 4.5,-0.26 6.37,6.37 0 0 1 3.58,2.79 3.69,3.69 0 0 1 0,3.81 v 0.08 a 278.26,278.26 0 0 0 -10.83,30.45 116.68,116.68 0 0 0 -4,19.82 c -0.45,5.17 -0.31,8.92 0.43,11.47 a 16,16 0 0 0 2.29,5.33 l 0.05,0.06 a 8.31,8.31 0 0 0 2.55,1.89 11.3,11.3 0 0 0 5,0.86 c 3.5,0 7.45,-1.4 12.08,-4.29 a 73.36,73.36 0 0 0 13.92,-11.85 c 2.07,-2.17 4,-4.36 5.62,-6.49 1.39,-1.8 2.35,-2.92 3,-3.74 0.65,-0.82 1,-1.18 1.42,-1.75 a 61.19,61.19 0 0 0 3.84,-5.85 50.71,50.71 0 0 0 3.11,-6.58 c 1.5,-6.35 3.55,-13.46 6.09,-21.09 2.34,-6.72 4.93,-13.66 7.67,-20.63 2.74,-6.97 5.54,-13.76 8.39,-20.42 2.85,-6.66 13.24,-29.51 16,-35.37 l 7.8,-16.64 a 5.51,5.51 0 0 1 3.1,-2.74 5.67,5.67 0 0 1 2.14,-0.42 6,6 0 0 1 2.14,0.41 5,5 0 0 1 2.86,2.87 4.55,4.55 0 0 1 -0.09,3.92 C 281.4,37 262.84,79.54 256.31,99 c -4.59,13.45 -7.39,24.68 -8.34,33.38 -0.82,6.13 -0.89,10.5 -0.22,13.35 a 16.6,16.6 0 0 0 2.32,6 6.09,6.09 0 0 0 2.28,2.1 9.5,9.5 0 0 0 4.77,1 c 3.23,0 6.87,-1.45 11.15,-4.42 a 73.22,73.22 0 0 0 12.82,-11.93 l 0.63,-0.71 c 1.26,-1.44 2.83,-3.22 4.63,-5.63 a 82.8,82.8 0 0 0 5.07,-7.78 l 1.15,-1.93 c 6.3,-10.45 8.5,-13.15 9.61,-14.28 a 91.3,91.3 0 0 1 9.13,-10 c 4.62,-4.38 11,-10.38 20.76,-13.87 a 45.63,45.63 0 0 1 5,-1.45 l 0.88,-0.22 c 7.2,-2.08 13.31,-1.84 18.68,0.72 a 19.88,19.88 0 0 1 9.56,8.66 c 3.24,6.23 2.57,13.48 -2.32,25 a 75.27,75.27 0 0 0 -4.64,25.65 34.57,34.57 0 0 0 0.9,8.81 v 0.11 l -0.1,0.07 -0.14,0.08 v 0 a 10,10 0 0 0 3.48,4.41 c 3.36,2.26 7.6,1.43 9.2,1.12 13.84,-2.71 19.83,-23.9 19.89,-24.11 a 5.56,5.56 0 0 1 6.84,-3.88 5.56,5.56 0 0 1 3.88,6.85 z m -46.87,-39 a 9.29,9.29 0 0 0 -4.48,-3.74 c -4.39,-2.1 -9.23,-0.7 -14.22,1 -13.19,4.62 -23,15.31 -28.83,23.47 l -0.09,0.13 v 0 a 60.62,60.62 0 0 0 -7.28,15.74 c -1.8,5.82 -2.37,10.89 -1.71,15.08 0.73,4.56 2.74,7.4 6,8.45 2,0.67 4.73,0.57 8.19,-0.29 3.46,-0.86 7.27,-2.94 11.7,-6.24 A 102.09,102.09 0 0 0 338.38,137.92 103.2,103.2 0 0 0 351,118.44 c 4.74,-9.91 7.45,-17.34 5.35,-21.39 z m -266,-9.36 A 4.87,4.87 0 1 0 83,81.38 a 10.46,10.46 0 0 1 -6.61,3.53 8.47,8.47 0 0 1 -1,0.06 10.44,10.44 0 0 1 -5.99,-1.97 5.56,5.56 0 0 0 -1.24,-1 5.1,5.1 0 0 0 -3.07,-1 4.81,4.81 0 0 0 -3.56,1.56 5.39,5.39 0 0 0 -0.4,0.54 l -0.05,0.07 a 6.14,6.14 0 0 0 -1,1.29 A 3.69,3.69 0 0 0 60,88 a 27,27 0 0 1 2.16,12.45 52,52 0 0 1 -2.57,13.18 76.07,76.07 0 0 1 -5.56,12.83 90.13,90.13 0 0 1 -7.23,11.24 c -4.8,6.59 -9.66,11.65 -14.43,15.05 -5,3.55 -8.81,5.28 -11.7,5.28 a 9.62,9.62 0 0 1 -4.56,-0.85 7.9,7.9 0 0 1 -2.36,-1.89 17.06,17.06 0 0 1 -2.21,-5.61 c -0.68,-2.64 -0.81,-6.42 -0.4,-11.56 a 126.23,126.23 0 0 1 3.72,-19.75 294.43,294.43 0 0 1 10,-30.48 v -0.1 a 3.43,3.43 0 0 0 -0.15,-3.5 6.6,6.6 0 0 0 -3.23,-2.79 6.37,6.37 0 0 0 -1.77,-0.26 5.92,5.92 0 0 0 -2.44,0.54 4.92,4.92 0 0 0 -2.71,2.88 C 7.75,102.53 3.31,117.43 1.44,129 c -2.74,14.78 -1.57,25.51 3.47,31.88 a 19,19 0 0 0 5.61,4.72 c 2.49,1.5 5.92,2.26 10.19,2.26 5.61,0 11.83,-2.52 18.46,-7.48 a 94.15,94.15 0 0 0 17,-17.44 90.47,90.47 0 0 0 14.63,-28.54 54.76,54.76 0 0 0 2.1,-19.46 v -0.39 h 0.39 a 19.6,19.6 0 0 0 2.06,0.12 19.68,19.68 0 0 0 15.07,-7 z"
         id="path237" /><path
         class="cls-2"
         d="m 381.52,72.31 a 43.42,43.42 0 0 1 -43.38,-43.37 5.59,5.59 0 1 1 11.18,0 32.24,32.24 0 0 0 32.2,32.2 5.59,5.59 0 0 1 0,11.17 z"
         id="path239" /></g></g><metadata
     id="metadata247"><rdf:RDF><cc:Work
         rdf:about=""><dc:title>BLEU-fond-transparent-2</dc:title></cc:Work></rdf:RDF></metadata><style
     type="text/css"
     id="style313">
	.st0{display:none;}
	.st1{fill-rule:evenodd;clip-rule:evenodd;fill:#FFFFFF;}
</style><g
     id="Hintergrund"
     class="st0"
     transform="matrix(0.10333207,0,0,0.10333207,-36.950154,-2.8287622)">
</g><g
     id="Hilfslinien_anzeigen"
     class="st0"
     transform="matrix(0.10333207,0,0,0.10333207,-36.950154,-2.8287622)">
</g><g
     id="Vordergrund"
     transform="matrix(0.10333207,0,0,0.10333207,-56.915806,-26.276409)"
     clip-path="url(#clipPath598)">
	<g
   id="g383">
		<g
   id="g347">
			<g
   id="g339">
				<polygon
   class="st1"
   points="712.45,124.99 726.15,124.99 726.15,167.97 733.7,167.97 733.7,124.99 747.4,124.99 747.4,118.21 712.45,118.21 "
   id="polygon317" />
				<path
   class="st1"
   d="m 700.43,151.55 h -15.31 l 7.76,-22.09 z m 13.55,16.42 -18.24,-49.76 h -6.08 l -18.24,49.76 h 8.04 l 3.42,-9.99 h 19.64 l 3.42,9.99 z"
   id="path319" />
				<polygon
   class="st1"
   points="638.03,124.99 651.73,124.99 651.73,167.97 659.28,167.97 659.28,124.99 672.97,124.99 672.97,118.21 638.03,118.21 "
   id="polygon321" />
				<rect
   x="621.88"
   y="118.21"
   class="st1"
   width="7.5500002"
   height="49.759998"
   id="rect323" />
				<path
   class="st1"
   d="m 611.75,153.78 c 0,-4.26 -1.33,-7.83 -4.05,-10.2 -2.09,-1.89 -4.68,-3 -9.29,-3.7 l -5.66,-0.84 c -2.31,-0.35 -4.33,-1.19 -5.59,-2.31 -1.33,-1.19 -1.88,-2.79 -1.88,-4.61 0,-4.4 3.21,-7.76 9.08,-7.76 4.19,0 7.76,0.91 10.83,3.84 l 4.82,-4.75 c -4.26,-3.99 -8.87,-5.66 -15.44,-5.66 -10.34,0 -16.63,5.94 -16.63,14.61 0,4.06 1.19,7.2 3.63,9.51 2.17,2.03 5.38,3.42 9.44,3.98 l 5.87,0.84 c 2.94,0.42 4.19,0.91 5.45,2.1 1.33,1.19 1.96,3 1.96,5.17 0,4.82 -3.78,7.62 -10.28,7.62 -5.1,0 -9.08,-1.12 -12.72,-4.75 l -5.03,4.96 c 4.75,4.82 10.13,6.57 17.61,6.57 10.41,-0.01 17.88,-5.46 17.88,-14.62 z"
   id="path325" />
				<path
   class="st1"
   d="m 562.07,132.81 c 0,4.89 -3.42,7.76 -8.45,7.76 h -11.18 v -15.59 h 11.18 c 5.03,0.01 8.45,2.94 8.45,7.83 z m 9.09,35.16 -11.46,-22.02 c 5.59,-1.54 9.92,-6.08 9.92,-13.21 0,-8.46 -6.01,-14.54 -15.44,-14.54 h -19.29 v 49.76 h 7.55 V 147 h 9.44 l 10.48,20.97 z"
   id="path327" />
				<path
   id="polygon329"
   class="st1"
   d="m 492.76056,118.20961 v 45.43906 c 1.12041,-0.28128 2.23942,-0.54622 3.36446,-0.85056 1.73106,-0.5251 3.48392,-1.03935 5.2357,-1.60662 h -1.05848 v -14.96994 h 15.68819 c -0.31013,-2.24302 -0.69246,-4.47115 -1.13409,-6.69111 h -14.5541 v -14.53521 h 9.80984 c -0.72622,-1.59152 -1.50405,-3.17066 -2.36268,-4.70646 -0.38261,-0.69812 -0.78415,-1.38371 -1.17189,-2.07916 z m 25.74376,0 c 1.11215,2.2233 2.15674,4.47156 3.04313,6.78562 h 3.00533 v -6.78562 z m 4.21502,42.98188 c -2.62369,2.92041 -6.06267,5.06309 -9.77204,6.78561 h 11.60548 v -6.78561 z" />
				<path
   id="polygon331"
   class="st1"
   d="m 447.18919,118.20961 14.76202,44.90982 c 2.72427,0.75389 5.44749,1.43933 8.43004,1.94685 l 15.53699,-46.85667 h -7.97641 l -11.45427,36.19626 -11.47318,-36.19626 z" />
				<path
   id="rect333"
   class="st1"
   d="m 432.80519,118.20961 v 33.02082 c 2.42236,1.564 4.93918,2.95622 7.54168,4.19612 v -37.21694 z m 0,45.21225 v 4.55524 h 7.54168 v -1.03958 c -2.56175,-1.06918 -5.09012,-2.22667 -7.54168,-3.51566 z" />
				<path
   id="polygon335"
   class="st1"
   d="m 382.33834,118.20961 v 49.76749 h 7.56058 v -35.02437 l 22.98415,35.02437 h 6.91793 v -13.36331 c -3.10083,-2.68321 -4.52462,-4.57598 -7.54168,-8.33554 v 6.88012 l -23.00305,-34.94876 z m 29.92098,0 v 5.14119 c 1.7318,5.38858 4.11423,10.54598 7.42827,15.32907 0.0464,0.0592 0.068,0.0932 0.11341,0.15121 v -20.62147 z" />
				<path
   class="st1"
   d="m 370.12,151.2 v -32.99 h -7.55 v 32.64 c 0,6.64 -4.12,10.76 -10.34,10.76 -6.22,0 -10.27,-4.12 -10.27,-10.76 v -32.64 h -7.55 v 32.99 c 0,10.28 7.69,17.19 17.82,17.19 10.13,0 17.89,-6.92 17.89,-17.19 z"
   id="path337" />
			</g>
			<g
   id="g345">
				<rect
   x="681.76001"
   y="105.49"
   class="st1"
   width="6.4299998"
   height="7.5500002"
   id="rect341" />
				<rect
   x="696.85999"
   y="105.49"
   class="st1"
   width="6.4299998"
   height="7.5500002"
   id="rect343" />
			</g>
		</g>
		<g
   id="g369">
			<polygon
   class="st1"
   points="668.36,78.29 675.91,78.29 675.91,56.56 696.11,56.56 696.11,78.29 703.66,78.29 703.66,28.53 696.11,28.53 696.11,49.78 675.91,49.78 675.91,28.53 668.36,28.53 "
   id="polygon349" />
			<path
   class="st1"
   d="m 658.3,63.41 h -7.61 c -1.19,5.03 -4.61,8.52 -10.13,8.52 -2.93,0 -5.59,-1.12 -7.34,-3 -2.45,-2.66 -3.01,-5.52 -3.01,-15.52 0,-10 0.56,-12.86 3.01,-15.52 1.75,-1.89 4.4,-3 7.34,-3 5.52,0 8.87,3.49 10.06,8.53 h 7.69 c -1.74,-9.93 -8.6,-15.31 -17.75,-15.31 -5.17,0 -9.65,1.89 -13.07,5.31 -4.89,4.89 -4.82,10.41 -4.82,19.99 0,9.58 -0.07,15.1 4.82,19.99 3.43,3.43 7.9,5.31 13.07,5.31 9,0 16.06,-5.38 17.74,-15.3 z"
   id="path351" />
			<path
   class="st1"
   d="m 614.34,64.11 c 0,-4.26 -1.33,-7.83 -4.05,-10.2 -2.1,-1.89 -4.68,-3 -9.3,-3.7 l -5.66,-0.84 c -2.3,-0.35 -4.34,-1.19 -5.59,-2.31 -1.33,-1.19 -1.88,-2.79 -1.88,-4.61 0,-4.4 3.22,-7.76 9.08,-7.76 4.19,0 7.76,0.91 10.84,3.84 l 4.82,-4.75 c -4.27,-3.99 -8.87,-5.66 -15.45,-5.66 -10.34,0 -16.63,5.94 -16.63,14.61 0,4.05 1.19,7.2 3.64,9.51 2.17,2.03 5.38,3.42 9.44,3.99 l 5.87,0.84 c 2.94,0.42 4.19,0.91 5.45,2.1 1.33,1.19 1.96,3 1.96,5.17 0,4.82 -3.77,7.62 -10.27,7.62 -5.1,0 -9.08,-1.12 -12.72,-4.75 l -5.03,4.96 c 4.75,4.82 10.14,6.57 17.61,6.57 10.4,-0.03 17.87,-5.48 17.87,-14.63 z"
   id="path353" />
			<rect
   x="562.70001"
   y="28.530001"
   class="st1"
   width="7.5500002"
   height="49.759998"
   id="rect355" />
			<path
   id="polygon357"
   class="st1"
   d="m 512.24795,28.522274 v 49.767494 h 7.54167 V 43.284299 l 23.00305,35.005469 h 6.91793 V 28.522274 h -7.54167 V 63.471038 L 519.16587,28.522274 Z" />
			<path
   id="polygon359"
   class="st1"
   d="m 463.95476,28.522274 v 8.600156 c 2.58026,3.026455 5.05955,6.128337 7.54168,9.167198 V 28.522274 Z m 27.74732,0 v 21.264121 h -17.38933 c 1.77534,2.22976 3.50254,4.47822 5.1979,6.766716 h 12.19143 v 1.587721 c 0.42931,-0.175025 0.90137,-0.269041 1.39871,-0.283522 1.8477,-0.0538 4.07967,1.06706 6.14296,3.79919 V 28.522274 Z m -27.74732,25.195621 v 24.571873 h 7.54168 V 63.433235 c -2.43267,-3.299989 -4.93115,-6.543869 -7.54168,-9.71534 z m 27.74732,15.499181 v 4.952178 c 0.90351,1.37219 1.80803,2.742741 2.70291,4.120514 h 3.53457 c -0.51538,-0.641753 -0.99899,-1.406479 -1.43651,-2.305976 -1.21071,-2.489042 -3.18864,-4.523674 -4.80097,-6.766716 z" />
			<path
   id="path361"
   class="st1"
   d="m 436.13184,28.106442 c -5.16999,0 -9.63089,1.891309 -13.06089,5.311305 -4.89,4.889995 -4.81987,10.417734 -4.81987,19.997725 0,9.57999 -0.0701,15.088827 4.81987,19.978822 3.42,3.429997 7.8909,5.311305 13.06089,5.311305 9.01,0 16.08736,-5.371275 17.76736,-15.291265 h -7.63618 c -1.19,5.029995 -4.61118,8.52455 -10.13118,8.52455 -2.92999,0 -5.58376,-1.125331 -7.33375,-3.00533 -2.45,-2.659997 -3.00533,-5.518092 -3.00533,-15.518082 0,-9.99999 0.56533,-12.858086 3.00533,-15.518083 1.74999,-1.889998 4.39376,-3.005329 7.33375,-3.005329 5.52,0 8.89447,3.484554 10.07447,8.524549 h 7.69289 c -0.14436,-0.819117 -0.39266,-1.549244 -0.60485,-2.305975 -1.23612,-1.366185 -2.48533,-2.709416 -3.78029,-4.026007 -1.93434,-1.966659 -3.66726,-3.667278 -5.84054,-5.292404 -0.42822,-0.320218 -0.88958,-0.56559 -1.342,-0.850564 -1.27717,-0.804407 -2.26363,-1.682072 -2.98643,-2.589498 -1.03296,-0.155455 -2.10828,-0.245719 -3.21325,-0.245719 z" />
			<path
   id="polygon363"
   class="st1"
   d="m 377.93431,28.522274 v 49.767494 h 13.74135 c -1.24353,-2.773815 -1.27437,-5.120512 -0.56705,-6.766716 h -5.63263 V 56.553111 h 20.69708 V 49.843099 H 385.47598 V 35.307891 h 24.25055 v -6.785617 z m 21.77446,43.000778 c 0.57925,0.704503 1.12179,1.530772 1.60662,2.551694 1.33271,2.806349 1.64175,3.440472 2.00355,4.215022 h 6.40759 v -6.766716 z" />
			<polygon
   class="st1"
   points="334.41,35.31 348.1,35.31 348.1,78.29 355.65,78.29 355.65,35.31 369.35,35.31 369.35,28.53 334.41,28.53 "
   id="polygon365" />
			<polygon
   class="st1"
   points="724.21,35.31 748.46,35.31 748.46,28.53 716.66,28.53 716.66,78.29 748.46,78.29 748.46,71.52 724.21,71.52 724.21,56.56 744.89,56.56 744.89,49.85 724.21,49.85 "
   id="polygon367" />
		</g>
		<g
   id="g379">
			<polygon
   class="st1"
   points="377.11,240.11 367.11,204.53 361.03,204.53 351.04,240.11 342.37,204.53 334.41,204.53 347.41,254.29 353.97,254.29 364.04,219.42 374.17,254.29 380.74,254.29 393.74,204.53 385.77,204.53 "
   id="polygon371" />
			<polygon
   class="st1"
   points="471.22,254.29 471.22,219.28 494.22,254.29 501.13,254.29 501.13,204.53 493.59,204.53 493.59,239.48 470.59,204.53 463.67,204.53 463.67,254.29 "
   id="polygon373" />
			<polygon
   class="st1"
   points="429.1,211.31 453.35,211.31 453.35,204.53 421.55,204.53 421.55,254.29 453.35,254.29 453.35,247.52 429.1,247.52 429.1,232.56 449.78,232.56 449.78,225.85 429.1,225.85 "
   id="polygon375" />
			<rect
   x="401"
   y="204.53"
   class="st1"
   width="7.5500002"
   height="49.759998"
   id="rect377" />
		</g>
		<path
   class="st1"
   d="m 202.75,138.27 c 0.46,-0.08 0.8,-0.14 1.25,-0.25 11.39,-2.89 19.88,-13.87 19.88,-26.08 l -0.26,-83.47 h 30.87 v 83.91 c 0.03,29.16 -22.11,53.41 -50.49,56.41 l -1.25,0.13 z m -9.18,30.65 -1.6,-0.13 c -28.37,-2.96 -50.31,-26.94 -50.31,-56.1 V 28.48 h 30.67 l -0.05,83.47 c 0,12.21 8.49,23.19 19.88,26.08 0.5,0.12 0.89,0.2 1.4,0.29 z m -74.93,85.53 v -49.89 h -9.74 v 49.89 z m 66.22,0 v -8.69 h -23.12 v -12.12 h 19.69 v -8.69 h -19.69 v -11.7 h 23.12 v -8.69 H 152 v 49.89 z m 69.77,0 v -49.89 h -9.74 v 30.55 l -19.76,-30.55 h -8.69 v 49.89 h 9.74 v -30.62 l 19.76,30.62 z M 85.72,204.56 H 75.56 l -7.78,31.46 -9.11,-31.46 h -7.29 l -9.11,31.46 -7.71,-31.46 H 24.42 l 13.31,49.89 h 8.13 l 9.18,-30.27 9.18,30.27 h 8.13 z M 21.79,28.48 H 127.65 V 58.75 H 21.79 Z M 60.1,168.12 V 67.55 H 90.37 V 168.13 H 60.1 Z M 255.11,0 c 15.65,0 28.29,12.7 28.29,28.36 l 0.06,226.74 c 0,15.66 -12.74,28.36 -28.39,28.36 H 28.34 C 12.7,283.46 0,270.77 0,255.11 L 0.02,28.36 C 0.02,12.7 12.68,0 28.32,0 Z"
   id="path381" />
	</g>
</g></svg>
